<?xml version="1.0" standalone="no"?><!DOCTYPE svg PUBLIC "-//W3C//DTD SVG 1.1//EN" "http://www.w3.org/Graphics/SVG/1.1/DTD/svg11.dtd"><svg t="1585812518673" class="icon" viewBox="0 0 1024 1024" version="1.1" xmlns="http://www.w3.org/2000/svg" p-id="5912" xmlns:xlink="http://www.w3.org/1999/xlink" width="200" height="200"><defs><style type="text/css"></style></defs><path d="M771.531776 610.581504c-13.699072-29.289472-21.351424-61.970432-21.351424-96.439296s7.652352-67.150848 20.762624-95.040512l0.55296-2.47808c33.009664-70.730752 100.8896-121.91232 181.541888-131.456l-0.08192-0.080896-0.01024-5.0176c-2.581504-40.844288-36.462592-73.189376-77.940736-73.3184H530.941952l0.759808 174.434304c64.242688 10.090496 113.379328 65.690624 113.379328 132.765696 0 67.07712-49.13664 122.6752-114.138112 132.864v174.337024h343.881728c43.209728-0.109568 78.217216-35.116032 78.326784-78.336v-0.835584c-80.66048-9.501696-148.571136-60.66176-181.619712-131.398656zM252.3392 417.703936c13.698048 29.289472 21.3504 61.970432 21.3504 96.439296s-7.652352 67.150848-20.762624 95.040512l-0.382976 0.769024-0.55296 2.479104c-33.048576 70.811648-101.046272 122.031104-181.822464 131.489792 0.592896 42.790912 35.39456 77.314048 78.311424 77.421568h343.872512l-0.759808-174.434304c-64.242688-10.090496-113.379328-65.688576-113.379328-132.765696s49.13664-122.6752 114.138112-132.864h0.191488v-174.336H148.46976c-43.209728 0.109568-78.217216 35.116032-78.32576 78.336v0.95744c80.912384 9.324544 149.067776 60.562432 182.1952 131.467264z" fill="#1296db" p-id="5913"></path><path d="M415.455232 514.144256c0 46.258176 32.7168 84.873216 76.896256 94.08v-0.001024l-0.623616-188.050432c-43.554816 9.09824-76.27264 47.71328-76.27264 93.971456zM607.64672 514.144256c0-46.258176-32.715776-84.873216-76.895232-94.08v0.001024l0.623616 188.050432c43.554816-9.099264 76.271616-47.71328 76.271616-93.971456zM209.26976 418.2528c-29.048832-49.625088-79.739904-85.037056-139.12576-93.299712v93.997056l139.12576-0.697344zM953.151488 703.246336v-93.906944l-138.550272 0.694272c28.9536 49.46432 79.413248 84.801536 138.550272 93.212672zM797.237248 454.991872c-5.84704 18.376704-9.001984 37.953536-9.001984 58.267648 0 20.540416 3.224576 40.328192 8.818688 57.524224h156.097536v-114.432H796.862464l0.374784-1.359872zM209.343488 611.104768H70.144v94.092288c59.20256-8.370176 109.780992-43.810816 139.199488-94.092288zM226.43712 574.062592c5.987328-18.576384 9.222144-38.38976 9.222144-58.958848 0-20.569088-3.233792-40.382464-8.843264-57.601024h-156.672v115.424256l156.29312 1.135616zM814.142464 417.951744h139.009024v-94.062592c-59.119616 8.418304-109.621248 43.835392-139.009024 94.062592z" fill="#1296db" p-id="5914"></path></svg>